<svg version="1.1" id="Layer_1" xmlns="http://www.w3.org/2000/svg" xmlns:xlink="http://www.w3.org/1999/xlink" x="0px" y="0px" viewBox="0 0 512 512" style="enable-background:new 0 0 512 512;" xml:space="preserve"><g><path style="fill:#FFC61B;" d="M314.358,395.344c-52.799,0-102.44-20.562-139.775-57.897c-77.071-77.073-77.071-202.477,0-279.55 C211.918,20.562,261.559,0,314.358,0s102.44,20.562,139.775,57.897c77.071,77.073,77.071,202.477,0,279.55 C416.798,374.782,367.159,395.344,314.358,395.344z M314.358,32.12c-44.22,0-85.793,17.221-117.063,48.489 c-64.549,64.547-64.549,169.576,0,234.124c31.268,31.269,72.841,48.489,117.063,48.489S400.152,346,431.421,314.733 c64.549-64.547,64.549-169.576,0-234.124C400.153,49.342,358.578,32.12,314.358,32.12z"></path><path style="fill:#FFC61B;" d="M314.358,325.973c-34.269,0-66.489-13.346-90.722-37.578c-50.024-50.024-50.024-131.42,0-181.446 c24.233-24.233,56.453-37.578,90.722-37.578c34.271,0,66.489,13.346,90.722,37.578c6.272,6.271,6.272,16.441,0,22.714 c-6.27,6.271-16.439,6.27-22.712,0c-18.166-18.167-42.319-28.171-68.01-28.171s-49.844,10.004-68.01,28.171 c-37.502,37.501-37.502,98.52,0,136.018c18.166,18.167,42.319,28.171,68.01,28.171s49.844-10.004,68.01-28.171 c16.124-16.121,26.016-37.497,27.855-60.186c0.716-8.843,8.46-15.424,17.305-14.71c8.841,0.715,15.426,8.465,14.71,17.303 c-2.454,30.28-15.651,58.798-37.158,80.304C380.849,312.627,348.629,325.973,314.358,325.973z"></path><path style="fill:#FFC61B;" d="M135.115,392.975c-4.11,0-8.22-1.569-11.356-4.704c-6.271-6.272-6.273-16.441,0-22.714 l50.824-50.824c6.271-6.27,16.441-6.27,22.712,0c6.271,6.272,6.273,16.441,0,22.714l-50.824,50.824 C143.336,391.407,139.225,392.975,135.115,392.975z"></path></g><path style="fill:#FFEEC0;" d="M31.771,480.259L31.771,480.259c20.907,20.907,54.802,20.907,75.709,0l37.855-37.855 c20.907-20.907,20.907-54.802,0-75.709l0,0c-20.907-20.907-54.802-20.907-75.709,0L31.771,404.55 C10.866,425.457,10.866,459.353,31.771,480.259z"></path><path style="fill:#FFC61B;" d="M69.627,512c-18.59,0-36.066-7.24-49.212-20.384c-27.135-27.135-27.135-71.288,0-98.422 l37.854-37.855c13.145-13.145,30.622-20.384,49.212-20.384s36.066,7.24,49.212,20.384c27.135,27.135,27.135,71.288,0,98.423 l-37.854,37.854C105.693,504.76,88.216,512,69.627,512z M107.481,367.075c-10.01,0-19.422,3.899-26.499,10.977l-37.854,37.855 c-14.612,14.612-14.612,38.384,0,52.995c7.078,7.078,16.489,10.977,26.499,10.977c10.009,0,19.42-3.899,26.498-10.977l37.854-37.854 c14.612-14.612,14.612-38.385,0-52.997C126.902,370.972,117.491,367.075,107.481,367.075z"></path></svg>