<svg xmlns="http://www.w3.org/2000/svg"  viewBox="0 0 100 100" width="192px" height="192px"><path fill="#8cc78c" d="M20.06,30.988v39c0,6.075,4.925,11,11,11h39c6.075,0,11-4.925,11-11v-39c0-6.075-4.925-11-11-11h-39 C24.984,19.988,20.06,24.913,20.06,30.988z"/><polyline fill="#f599a0" points="19.262,45.292 28.56,51.983 28.56,81.764 20.83,76.708 19.06,69.68 19.262,45.292"/><polygon fill="#eeecd9" points="41.408,61 70.992,82.404 41.707,81.562"/><polygon fill="#f8e55b" points="19.06,45.157 71.543,82 78.015,79.135 82.262,71.5 19.06,27.5"/><polygon fill="#eeecd9" points="24.06,21 28.81,19 28.81,34 19.06,27"/><rect width="12.5" height="63" x="29.06" y="19" fill="#fff"/><polygon fill="#40a6dd" points="31.802,18.713 31.802,48.343 35.06,47.711 38.703,48.469 38.703,18.393"/><path fill="#3a83c1" d="M65.543,59c-0.175,0.006-0.346,0.058-0.493,0.152 c-1.55,0.989-3.334,1.514-5.156,1.517c-1.325-0.001-2.638-0.279-3.857-0.816c-0.473-0.208-1.038,0-1.264,0.465 c-0.792,1.626-1.206,3.411-1.212,5.22v0.003c0.001,6.616,5.383,11.999,11.999,11.999c6.617,0,12.001-5.384,12.001-12 c0-0.001,0-0.001,0-0.002c-0.003-1.813-0.417-3.601-1.21-5.231c-0.227-0.465-0.795-0.672-1.268-0.462 c-1.217,0.54-2.527,0.821-3.852,0.825c-1.814-0.007-3.591-0.531-5.134-1.516c-0.082-0.053-0.183-0.051-0.276-0.076 C65.738,59.024,65.641,58.997,65.543,59L65.543,59z"/><circle cx="35.06" cy="58" r="10.5" fill="#3a83c1"/><path fill="#ee4267" d="M65.543,59c-0.175,0.006-0.346,0.058-0.493,0.152 c-1.55,0.989-3.334,1.514-5.156,1.517c-1.325-0.001-2.638-0.279-3.857-0.816c-0.473-0.208-1.038,0-1.264,0.465 c-0.792,1.626-1.206,3.411-1.212,5.22v0.003c0-0.003,24-0.003,24-0.001c0,0.001,0-0.001,0-0.002 c-0.003-1.813-0.417-3.601-1.21-5.231c-0.227-0.465-0.795-0.672-1.268-0.462c-1.217,0.54-2.527,0.821-3.852,0.825 c-1.814-0.007-3.591-0.531-5.134-1.516c-0.082-0.053-0.183-0.051-0.276-0.076C65.738,59.024,65.641,58.997,65.543,59L65.543,59z"/><rect width="24" height="1" x="53.56" y="65" fill="#fff"/><path fill="#eeecd9" d="M47.56,18c0,19.606,15.894,35.5,35.5,35.5V40c-12.15,0-22-9.85-22-22"/><path fill="#fff" d="M35.012,50.503c-0.008,0.001-0.015,0.003-0.023,0.004 c-0.02,0.002-0.04,0.006-0.06,0.01c-0.029,0.006-0.058,0.011-0.086,0.02c-0.007,0.002-0.013,0.002-0.019,0.005 c-0.01,0.004-0.018,0.009-0.028,0.013c-0.029,0.011-0.057,0.024-0.084,0.039c-0.018,0.01-0.034,0.02-0.051,0.031 c-0.02,0.013-0.04,0.027-0.058,0.043c-0.02,0.016-0.038,0.033-0.056,0.051c-0.015,0.015-0.029,0.03-0.042,0.047 c-0.018,0.021-0.033,0.043-0.048,0.065c-0.01,0.016-0.02,0.032-0.03,0.048c-0.015,0.027-0.027,0.054-0.038,0.082 c-0.004,0.01-0.01,0.019-0.014,0.03l-1.029,2.977c-0.003,0.004-0.004,0.008-0.006,0.012l-0.769,2.227l-0.521,1.506v0l-1.995,5.774 c-0.119,0.263-0.075,0.581,0.138,0.802c0.12,0.125,0.273,0.194,0.432,0.214c0,0,0.003,0,0.003,0 c0.042,0.005,0.084,0.007,0.127,0.005c0.012-0.001,0.024-0.002,0.037-0.003c0.03-0.003,0.061-0.008,0.091-0.015 c0.02-0.005,0.038-0.01,0.057-0.016c0.023-0.008,0.045-0.015,0.068-0.025c0.025-0.011,0.049-0.023,0.073-0.037 c0.013-0.008,0.027-0.015,0.04-0.024c0.032-0.021,0.062-0.045,0.091-0.072c0.003-0.003,0.007-0.005,0.01-0.008l0.041-0.039v-0.002 l3.799-3.657l3.799,3.657c0.004,0.004,0.008,0.007,0.011,0.011l0.031,0.03c0.003,0.003,0.007,0.005,0.01,0.008 c0.029,0.026,0.058,0.051,0.091,0.072c0.013,0.009,0.027,0.016,0.04,0.024c0.024,0.013,0.048,0.026,0.073,0.037 c0.022,0.01,0.045,0.018,0.068,0.025c0.019,0.006,0.038,0.011,0.057,0.016c0.03,0.007,0.059,0.012,0.09,0.015 c0.013,0.001,0.025,0.003,0.038,0.003c0.042,0.002,0.085,0.001,0.127-0.005c0,0,0.003,0,0.003,0c0.159-0.02,0.312-0.09,0.432-0.214 c0.213-0.221,0.257-0.539,0.138-0.802l-3.285-9.507c0-0.003-0.003-0.006-0.004-0.009l-1.03-2.98 c-0.004-0.012-0.011-0.022-0.016-0.033c-0.01-0.026-0.022-0.052-0.035-0.076c-0.01-0.018-0.02-0.035-0.032-0.052 c-0.015-0.022-0.03-0.043-0.047-0.064c-0.014-0.017-0.029-0.033-0.045-0.048c-0.016-0.017-0.034-0.032-0.052-0.048 c-0.02-0.016-0.041-0.031-0.062-0.045c-0.016-0.011-0.032-0.021-0.049-0.03c-0.027-0.015-0.055-0.027-0.083-0.039 c-0.01-0.004-0.018-0.01-0.029-0.013c-0.007-0.002-0.012-0.003-0.019-0.005c-0.028-0.009-0.056-0.015-0.085-0.02 c-0.02-0.004-0.04-0.008-0.06-0.01c-0.024-0.002-0.048-0.003-0.072-0.003c-0.016,0-0.033-0.003-0.049-0.002L35.012,50.503z"/><path fill="none" stroke="#1f212b" stroke-linecap="round" stroke-linejoin="round" stroke-miterlimit="10" d="M37.824,56.993l-1.042-3.014c0-0.003-0.003-0.006-0.004-0.009l-1.03-2.98c-0.004-0.012-0.011-0.022-0.016-0.033 c-0.01-0.026-0.022-0.052-0.035-0.076c-0.01-0.018-0.02-0.035-0.032-0.052c-0.015-0.022-0.03-0.043-0.047-0.064 c-0.014-0.017-0.029-0.033-0.045-0.048c-0.016-0.017-0.034-0.032-0.052-0.048c-0.02-0.016-0.041-0.031-0.062-0.045 c-0.016-0.011-0.032-0.021-0.049-0.03c-0.027-0.015-0.055-0.027-0.083-0.039c-0.01-0.004-0.018-0.01-0.029-0.013 c-0.007-0.002-0.012-0.003-0.019-0.005c-0.028-0.009-0.056-0.015-0.085-0.02c-0.02-0.004-0.04-0.008-0.06-0.01 c-0.024-0.002-0.048-0.003-0.072-0.003c-0.016,0-0.033-0.003-0.049-0.002l-0.001,0.001c-0.008,0.001-0.015,0.003-0.023,0.004 c-0.02,0.002-0.04,0.006-0.06,0.01c-0.029,0.006-0.058,0.011-0.086,0.02c-0.007,0.002-0.013,0.002-0.019,0.005 c-0.01,0.004-0.018,0.009-0.028,0.013c-0.029,0.011-0.057,0.024-0.084,0.039c-0.018,0.01-0.034,0.02-0.051,0.031 c-0.02,0.013-0.04,0.027-0.058,0.043c-0.02,0.016-0.038,0.033-0.056,0.051c-0.015,0.015-0.029,0.03-0.042,0.047 c-0.018,0.021-0.033,0.043-0.048,0.065c-0.01,0.016-0.02,0.032-0.03,0.048c-0.015,0.027-0.027,0.054-0.038,0.082 c-0.004,0.01-0.01,0.019-0.014,0.03l-1.029,2.977c-0.003,0.004-0.004,0.008-0.006,0.012l-0.769,2.227l-0.521,1.506v0l-1.995,5.774 c-0.119,0.263-0.075,0.581,0.138,0.802c0.12,0.125,0.273,0.194,0.432,0.214c0,0,0.003,0,0.003,0 c0.042,0.005,0.084,0.007,0.127,0.005c0.012-0.001,0.024-0.002,0.037-0.003c0.03-0.003,0.061-0.008,0.091-0.015 c0.02-0.005,0.038-0.01,0.057-0.016c0.023-0.008,0.045-0.015,0.068-0.025c0.025-0.011,0.049-0.023,0.073-0.037 c0.013-0.008,0.027-0.015,0.04-0.024c0.032-0.021,0.062-0.045,0.091-0.072c0.003-0.003,0.007-0.005,0.01-0.008l0.041-0.039v-0.002 l3.799-3.657l3.799,3.657c0.004,0.004,0.008,0.007,0.011,0.011l0.031,0.03c0.003,0.003,0.007,0.005,0.01,0.008 c0.029,0.026,0.058,0.051,0.091,0.072c0.013,0.009,0.027,0.016,0.04,0.024c0.024,0.013,0.048,0.026,0.073,0.037 c0.022,0.01,0.045,0.018,0.068,0.025c0.019,0.006,0.038,0.011,0.057,0.016c0.03,0.007,0.059,0.012,0.09,0.015 c0.013,0.001,0.025,0.003,0.038,0.003c0.042,0.002,0.085,0.001,0.127-0.005c0,0,0.003,0,0.003,0c0.159-0.02,0.312-0.09,0.432-0.214 c0.213-0.221,0.257-0.539,0.138-0.802L38.517,59"/><path fill="none" stroke="#1f212b" stroke-miterlimit="10" d="M65.543,59 c-0.175,0.006-0.346,0.058-0.493,0.152c-1.55,0.989-3.334,1.514-5.156,1.517c-1.325-0.001-2.638-0.279-3.857-0.816 c-0.473-0.208-1.038,0-1.264,0.465c-0.792,1.626-1.206,3.411-1.212,5.22v0.003c0.001,6.616,5.383,11.999,11.999,11.999 c6.617,0,12.001-5.384,12.001-12c0-0.001,0-0.001,0-0.002c-0.003-1.813-0.417-3.601-1.21-5.231 c-0.227-0.465-0.795-0.672-1.268-0.462c-1.217,0.54-2.527,0.821-3.852,0.825c-1.814-0.007-3.591-0.531-5.134-1.516 c-0.082-0.053-0.183-0.051-0.276-0.076C65.738,59.024,65.641,58.997,65.543,59L65.543,59z"/><path fill="#1f212b" d="M70.06,82.988h-39c-7.18,0-13-5.82-13-13v-39c0-7.18,5.82-13,13-13h39c7.18,0,13,5.82,13,13v39 C83.06,77.168,77.239,82.988,70.06,82.988z M20.06,30.988v39c0,6.075,4.925,11,11,11h39c6.075,0,11-4.925,11-11v-39 c0-6.075-4.925-11-11-11h-39C24.984,19.988,20.06,24.913,20.06,30.988z"/><line x1="28.56" x2="28.56" y1="66.242" y2="82" fill="none" stroke="#1f212b" stroke-miterlimit="10"/><line x1="28.56" x2="28.56" y1="20" y2="49.607" fill="none" stroke="#1f212b" stroke-miterlimit="10"/><line x1="41.56" x2="41.56" y1="77.517" y2="82" fill="none" stroke="#1f212b" stroke-linecap="round" stroke-miterlimit="10"/><line x1="41.56" x2="41.56" y1="73.496" y2="74.505" fill="none" stroke="#1f212b" stroke-linecap="round" stroke-miterlimit="10"/><line x1="41.56" x2="41.56" y1="66.313" y2="71.497" fill="none" stroke="#1f212b" stroke-linecap="round" stroke-miterlimit="10"/><line x1="41.56" x2="41.56" y1="20" y2="49.5" fill="none" stroke="#1f212b" stroke-miterlimit="10"/><path fill="none" stroke="#1f212b" stroke-linecap="round" stroke-linejoin="round" stroke-miterlimit="10" d="M66.084,31.994 c-2.942-3.565-4.783-8.073-5.002-13.003"/><path fill="none" stroke="#1f212b" stroke-linecap="round" stroke-linejoin="round" stroke-miterlimit="10" d="M69.093,34.999 c-0.362-0.298-0.715-0.608-1.057-0.928"/><path fill="none" stroke="#1f212b" stroke-linecap="round" stroke-linejoin="round" stroke-miterlimit="10" d="M82.111,39.98 c-4.059-0.172-7.833-1.444-11.032-3.526"/><path fill="none" stroke="#1f212b" stroke-miterlimit="10" d="M83.06,53.5c-19.606,0-35.5-15.894-35.5-35.5"/><circle cx="35.06" cy="58" r="10.5" fill="none" stroke="#1f212b" stroke-miterlimit="10"/><line x1="38.56" x2="38.56" y1="19.5" y2="48" fill="none" stroke="#1f212b" stroke-miterlimit="10"/><line x1="31.56" x2="31.56" y1="40.522" y2="48" fill="none" stroke="#1f212b" stroke-linecap="round" stroke-miterlimit="10"/><line x1="31.56" x2="31.56" y1="34.522" y2="37.506" fill="none" stroke="#1f212b" stroke-linecap="round" stroke-miterlimit="10"/><line x1="31.56" x2="31.56" y1="19.5" y2="32.5" fill="none" stroke="#1f212b" stroke-linecap="round" stroke-miterlimit="10"/><line x1="64.595" x2="70.992" y1="77.46" y2="82" fill="none" stroke="#1f212b" stroke-miterlimit="10"/><line x1="44.273" x2="54.564" y1="63.038" y2="70.341" fill="none" stroke="#1f212b" stroke-miterlimit="10"/><line x1="19.56" x2="27.266" y1="45.5" y2="50.969" fill="none" stroke="#1f212b" stroke-miterlimit="10"/><line x1="77.211" x2="81.56" y1="68.414" y2="71.5" fill="none" stroke="#1f212b" stroke-miterlimit="10"/><line x1="41.707" x2="64.567" y1="43.217" y2="59.441" fill="none" stroke="#1f212b" stroke-miterlimit="10"/><line x1="19.56" x2="28.56" y1="27.5" y2="33.887" fill="none" stroke="#1f212b" stroke-miterlimit="10"/><path fill="#fff" d="M59.735,73.652v-0.798c0-0.241,0.082-0.48,0.247-0.716s0.365-0.45,0.6-0.642l0.786-0.569 c0.258-0.193,0.477-0.396,0.659-0.611c0.181-0.215,0.272-0.429,0.272-0.644c0-0.193-0.064-0.363-0.194-0.512 c-0.129-0.149-0.32-0.223-0.572-0.223c-0.214,0-0.389,0.062-0.527,0.186c-0.137,0.123-0.206,0.309-0.206,0.556 c0,0.107-0.05,0.201-0.149,0.282c-0.1,0.082-0.233,0.123-0.399,0.123c-0.317,0-0.475-0.191-0.475-0.574 c0-0.447,0.173-0.81,0.52-1.089c0.347-0.279,0.756-0.418,1.228-0.418c0.498,0,0.929,0.149,1.292,0.447 c0.364,0.299,0.546,0.694,0.546,1.188c0,0.331-0.089,0.64-0.267,0.929c-0.178,0.289-0.395,0.534-0.652,0.734 c-0.258,0.201-0.513,0.386-0.768,0.557c-0.255,0.171-0.471,0.341-0.649,0.512c-0.179,0.171-0.268,0.333-0.268,0.487v0.198h2.284 c0.087,0,0.166,0.045,0.234,0.135c0.069,0.09,0.103,0.198,0.103,0.323c0,0.126-0.033,0.237-0.1,0.332 c-0.067,0.095-0.143,0.143-0.229,0.143h-2.857c-0.102,0-0.203-0.033-0.305-0.099C59.786,73.824,59.735,73.745,59.735,73.652z"/><path fill="#fff" d="M63.862,72.36v-0.097c0-0.782,0.325-1.293,0.976-1.532c-0.519-0.189-0.779-0.616-0.779-1.284 c0-0.494,0.155-0.858,0.465-1.092c0.31-0.234,0.731-0.351,1.263-0.351c0.529,0,0.95,0.117,1.261,0.351 c0.311,0.234,0.467,0.598,0.467,1.092c0,0.668-0.262,1.096-0.786,1.284c0.65,0.234,0.975,0.744,0.975,1.532v0.097 c0,0.576-0.175,1-0.524,1.271c-0.35,0.271-0.814,0.407-1.392,0.407c-0.579,0-1.044-0.136-1.396-0.407 C64.038,73.359,63.862,72.935,63.862,72.36z M64.926,72.246c0,0.638,0.287,0.957,0.86,0.957c0.568,0,0.852-0.319,0.852-0.957 v-0.167c0-0.61-0.284-0.915-0.852-0.915c-0.573,0-0.86,0.305-0.86,0.915V72.246z M65.786,68.838c-0.469,0-0.704,0.249-0.704,0.745 c0,0.497,0.235,0.745,0.704,0.745s0.704-0.248,0.704-0.745C66.49,69.087,66.256,68.838,65.786,68.838z"/><path fill="#fff" d="M68.341,72.163v-2.285c0-0.649,0.173-1.124,0.52-1.425c0.347-0.3,0.812-0.45,1.396-0.45 s1.051,0.151,1.4,0.45c0.349,0.301,0.524,0.776,0.524,1.425v2.285c0,0.65-0.175,1.124-0.524,1.425 c-0.35,0.301-0.816,0.45-1.4,0.45s-1.05-0.15-1.396-0.45C68.514,73.287,68.341,72.813,68.341,72.163z M69.405,72.163 c0,0.628,0.284,0.942,0.852,0.942c0.573,0,0.86-0.314,0.86-0.942v-2.285c0-0.628-0.287-0.942-0.86-0.942 c-0.568,0-0.852,0.314-0.852,0.942V72.163z"/></svg>